<svg width="27" height="27" viewBox="0 0 27 27" fill="none" xmlns="http://www.w3.org/2000/svg">
<g clip-path="url(#clip0_158_234)">
<path d="M18 3.375H1.125V18H18V3.375Z" stroke="#7C7C7B" stroke-width="3" stroke-linecap="round" stroke-linejoin="round"/>
<path d="M18 9H22.5L25.875 12.375V18H18V9Z" stroke="#7C7C7B" stroke-width="3" stroke-linecap="round" stroke-linejoin="round"/>
<path d="M6.1875 23.625C7.7408 23.625 9 22.3658 9 20.8125C9 19.2592 7.7408 18 6.1875 18C4.6342 18 3.375 19.2592 3.375 20.8125C3.375 22.3658 4.6342 23.625 6.1875 23.625Z" stroke="#7C7C7B" stroke-width="3" stroke-linecap="round" stroke-linejoin="round"/>
<path d="M20.8125 23.625C22.3658 23.625 23.625 22.3658 23.625 20.8125C23.625 19.2592 22.3658 18 20.8125 18C19.2592 18 18 19.2592 18 20.8125C18 22.3658 19.2592 23.625 20.8125 23.625Z" stroke="#7C7C7B" stroke-width="3" stroke-linecap="round" stroke-linejoin="round"/>
</g>
<defs>
<clipPath id="clip0_158_234">
<rect width="27" height="27" fill="white"/>
</clipPath>
</defs>
</svg>
