<svg width="12" height="14" viewBox="0 0 12 14" fill="none" xmlns="http://www.w3.org/2000/svg">
<path d="M11.5258 3.4941C11.2222 2.81114 10.7843 2.19277 10.2371 1.6739C9.68805 1.15033 9.04078 0.734781 8.33064 0.449938C7.59194 0.151028 6.80806 0 6 0C5.19194 0 4.40806 0.151028 3.66935 0.448365C2.95484 0.736262 2.31452 1.14844 1.7629 1.67232C1.216 2.19149 0.778251 2.80978 0.474193 3.49253C0.159677 4.20047 0 4.95247 0 5.72649C0 6.83717 0.272581 7.94314 0.808065 9.00978C1.23871 9.86718 1.84032 10.7025 2.59839 11.497C3.89355 12.8531 5.25161 13.6822 5.6371 13.904C5.74652 13.9671 5.87131 14.0002 5.99839 14C6.12419 14 6.24839 13.9685 6.35968 13.904C6.74516 13.6822 8.10323 12.8531 9.39839 11.497C10.1565 10.7041 10.7581 9.86718 11.1887 9.00978C11.7274 7.94471 12 6.84032 12 5.72806C12 4.95404 11.8403 4.20204 11.5258 3.4941ZM6 12.7933C4.9371 12.1342 1.16129 9.52422 1.16129 5.72806C1.16129 4.50253 1.6629 3.35094 2.57419 2.48253C3.48871 1.61254 4.70484 1.13271 6 1.13271C7.29516 1.13271 8.51129 1.61254 9.42581 2.4841C10.3371 3.35094 10.8387 4.50253 10.8387 5.72806C10.8387 9.52422 7.0629 12.1342 6 12.7933ZM6 3.08349C4.43226 3.08349 3.16129 4.32318 3.16129 5.85234C3.16129 7.3815 4.43226 8.62119 6 8.62119C7.56774 8.62119 8.83871 7.3815 8.83871 5.85234C8.83871 4.32318 7.56774 3.08349 6 3.08349ZM7.27742 7.09833C7.10987 7.26222 6.91076 7.39218 6.69153 7.48074C6.4723 7.56929 6.23729 7.6147 6 7.61434C5.51774 7.61434 5.06452 7.43027 4.72258 7.09833C4.55455 6.9349 4.42131 6.74069 4.33052 6.52685C4.23973 6.31302 4.19318 6.08379 4.19355 5.85234C4.19355 5.38195 4.38226 4.93988 4.72258 4.60636C5.06452 4.27284 5.51774 4.09035 6 4.09035C6.48226 4.09035 6.93548 4.27284 7.27742 4.60636C7.61935 4.93988 7.80645 5.38195 7.80645 5.85234C7.80645 6.32273 7.61935 6.7648 7.27742 7.09833Z" fill="#7C7C7B"/>
</svg>
